:SAMPLES-PER-SECOND 30
:FULLY-SPECIFIED
:DEGREES
600
root  9.74101 38.8216 3.59494 -171.772 -82.145 166.314
RightUpLeg  -17.9108 4.01346 -9.90895
RightLeg  53.7226 -0.470908 -1.10135
RightFoot  -5.93618 -0.442482 8.51501
RightToes  5.82063e-011 0 -3.6325e-017
Spine  11.1981 -1.46775 -4.43649
Spine1  10.6509 -3.47673 3.09516
HEad  -18.2224 4.99077 -3.90619
LeftShoulder1  0.429671 2.0651 -23.5655
LeftArm  -0.147931 -23.7849 -56.5064
LeftForeArm  27.2958 -71.8562 -34.2813
LeftHand  -0.0551865 3.9369 2.6361
RightShoulder  -0.125055 -3.92559 21.5099
RightArm  -24.8864 0.315726 35.8599
RightForeArm  129.697 70.406 147.215
RightHand  -1.43371 9.21192 -11.7154
LeftUpLeg  -4.77842 6.25816 -7.58135
LeftLeg  20.5504 5.23079 1.82883
LeftFoot  -10.2011 -0.0472303 10.899
LeftToes  -1.20963e-009 8.6283e-011 2.04439e-011
601
root  8.75989 38.9554 3.64116 -170.283 -82.7897 165.086
RightUpLeg  -19.7765 3.52457 -9.2342
RightLeg  46.4055 0.255599 -0.0191257
RightFoot  -6.54965 -0.425165 9.06846
RightToes  5.82063e-011 0 -3.6325e-017
Spine  10.863 -1.81651 -5.37394
Spine1  10.4926 -4.20095 4.61747
HEad  -18.7005 5.51493 -3.39675
LeftShoulder1  0.414275 2.12283 -23.6985
LeftArm  -0.517253 -23.2555 -55.9915
LeftForeArm  29.3354 -72.6176 -36.0623
LeftHand  -0.0545548 3.55544 2.0219
RightShoulder  -0.174774 -4.09717 21.7973
RightArm  -24.2006 -0.620908 35.1881
RightForeArm  129.627 69.8349 148.179
RightHand  -1.47424 8.93747 -12.2593
LeftUpLeg  -2.10773 5.22362 -7.65899
LeftLeg  18.0201 5.78087 1.26928
LeftFoot  -10.6585 -0.000870569 10.9047
LeftToes  -1.20963e-009 8.6283e-011 2.04439e-011
602
root  7.76086 38.9963 3.68879 -167.536 -82.8639 162.629
RightUpLeg  -21.034 2.85089 -8.52532
RightLeg  37.7042 1.05193 0.603119
RightFoot  -6.5197 -0.425885 9.03895
RightToes  5.82063e-011 0 -3.6325e-017
Spine  10.4647 -2.00203 -6.02171
Spine1  10.4125 -4.53219 5.5022
HEad  -19.047 6.15422 -3.75114
LeftShoulder1  0.407512 2.14343 -23.7088
LeftArm  -0.723356 -22.5965 -55.4949
LeftForeArm  30.298 -73.1161 -37.4526
LeftHand  -0.0474786 4.05129 2.9891
RightShoulder  -0.208791 -4.20702 22.2464
RightArm  -23.5969 -1.81553 34.6364
RightForeArm  129.825 69.5256 148.706
RightHand  -1.46591 8.73479 -12.3561
LeftUpLeg  0.326368 4.81486 -8.01418
LeftLeg  15.8938 5.98583 0.779217
LeftFoot  -11.5958 0.0929563 10.6082
LeftToes  -1.20963e-009 8.6283e-011 2.04439e-011
603
root  6.73803 38.9526 3.76734 -164.203 -82.7177 159.537
RightUpLeg  -21.5629 0.98047 -7.67018
RightLeg  28.0531 2.20151 1.06255
RightFoot  -6.43211 -0.443919 9.33103
RightToes  5.82063e-011 0 -3.6325e-017
Spine  9.991 -2.16398 -6.42964
Spine1  10.5995 -4.78134 6.22882
HEad  -19.1434 6.30952 -4.14815
LeftShoulder1  0.290055 2.56283 -24.5249
LeftArm  -0.552212 -22.3978 -54.6261
LeftForeArm  30.3107 -73.2707 -37.9905
LeftHand  -0.0486458 4.23079 2.86257
RightShoulder  -0.246507 -4.3321 22.4452
RightArm  -22.8753 -3.29942 34.6985
RightForeArm  130.661 69.2444 149.256
RightHand  -1.3884 8.58121 -11.853
LeftUpLeg  2.54495 4.72658 -8.62764
LeftLeg  14.3318 6.12763 0.488285
LeftFoot  -12.8711 0.213961 10.1347
LeftToes  -1.20963e-009 8.6283e-011 2.04439e-011
604
root  5.70139 38.8226 3.83436 -160.159 -82.7059 155.729
RightUpLeg  -21.5013 -2.34045 -6.19431
RightLeg  17.9753 3.43521 0.971238
RightFoot  -6.86178 -0.452399 10.3305
RightToes  5.82063e-011 0 -3.6325e-017
Spine  9.50801 -2.46678 -6.34697
Spine1  10.962 -4.96142 6.18571
HEad  -19.6364 6.63067 -4.40264
LeftShoulder1  0.291452 2.5571 -24.5182
LeftArm  -0.844116 -21.4011 -54.3037
LeftForeArm  30.9432 -73.4856 -38.5973
LeftHand  -0.0493922 4.07585 2.60844
RightShoulder  -0.30917 -4.52009 23.3033
RightArm  -22.0571 -4.59665 34.7569
RightForeArm  130.62 69.1482 149.399
RightHand  -1.39835 8.41019 -12.0731
LeftUpLeg  4.31362 4.75086 -9.27556
LeftLeg  13.7667 6.12312 0.252812
LeftFoot  -14.4727 0.364348 10.1221
LeftToes  -1.20963e-009 8.6283e-011 2.04439e-011
605
root  4.65008 38.6631 3.88035 -156.21 -82.5113 151.924
RightUpLeg  -21.2093 -6.30588 -4.33654
RightLeg  8.51233 4.21041 0.91777
RightFoot  -6.75286 -0.482618 10.8724
RightToes  5.82063e-011 0 -3.6325e-017
Spine  8.91591 -2.57162 -6.39863
Spine1  11.8068 -5.10395 6.47101
HEad  -20.1452 6.43643 -4.29165
LeftShoulder1  0.275316 2.61776 -24.8242
LeftArm  -0.72383 -20.7369 -54.0801
LeftForeArm  30.5925 -73.3913 -38.3477
LeftHand  -0.0534065 3.95159 2.75131
RightShoulder  -0.370616 -4.70294 23.9177
RightArm  -21.3433 -5.96428 35.3701
RightForeArm  130.414 69.3389 149.077
RightHand  -1.39805 8.49086 -12.0088
LeftUpLeg  6.0651 4.56523 -10.0984
LeftLeg  13.4384 6.37944 0.274349
LeftFoot  -16.0597 0.505572 9.88843
LeftToes  -1.20963e-009 8.6283e-011 2.04439e-011
606
root  3.54733 38.4174 3.90101 -152.714 -82.0873 148.49
RightUpLeg  -20.7728 -6.34332 -3.76551
RightLeg  0.691667 0.796056 1.21501
RightFoot  -7.09259 -0.479106 11.5674
RightToes  5.82063e-011 0 -3.6325e-017
Spine  8.49141 -2.60617 -6.42819
Spine1  12.5074 -5.10853 6.46704
HEad  -20.3675 6.51061 -4.44255
LeftShoulder1  0.224691 2.78874 -25.1778
LeftArm  -0.212994 -20.2767 -53.7242
LeftForeArm  29.3063 -73.0705 -37.5469
LeftHand  -0.0642847 3.74074 3.29641
RightShoulder  -0.43699 -4.89168 24.5753
RightArm  -20.635 -7.48995 36.1561
RightForeArm  130.058 69.5184 148.747
RightHand  -1.41622 8.06049 -12.5235
LeftUpLeg  7.66349 4.70974 -10.9222
LeftLeg  13.8176 6.57402 0.316339
LeftFoot  -17.9883 0.673489 9.71419
LeftToes  -1.20963e-009 8.6283e-011 2.04439e-011
607
root  2.36135 38.1036 3.89235 -151.455 -81.3759 147.047
RightUpLeg  -20.8836 -5.60526 -3.13626
RightLeg  -3.14009 -1.11601 1.32343
RightFoot  -7.44391 -0.442585 11.4786
RightToes  5.82063e-011 0 -3.6325e-017
Spine  8.19683 -2.47168 -6.42149
Spine1  13.205 -4.94675 6.40738
HEad  -20.4335 6.31895 -4.71292
LeftShoulder1  0.210198 2.84249 -25.5526
LeftArm  0.546423 -19.9636 -53.2215
LeftForeArm  28.2021 -72.7458 -36.7335
LeftHand  -0.0702097 3.4774 3.27162
RightShoulder  -0.518747 -5.11142 25.4739
RightArm  -19.961 -8.71357 36.6592
RightForeArm  129.609 69.7963 148.239
RightHand  -1.41437 8.40091 -12.2152
LeftUpLeg  9.63117 5.07983 -11.6608
LeftLeg  14.2939 7.00735 0.493242
LeftFoot  -20.1212 0.83892 9.32409
LeftToes  -1.20963e-009 8.6283e-011 2.04439e-011
608
root  1.09877 37.7398 3.8748 -150.687 -80.8446 145.906
RightUpLeg  -21.4985 -5.13622 -2.58902
RightLeg  -2.32598 -1.43596 1.37141
RightFoot  -7.32401 -0.465295 11.7214
RightToes  5.82063e-011 0 -3.6325e-017
Spine  8.42516 -2.53619 -6.39793
Spine1  13.4442 -5.0365 6.3836
HEad  -20.8413 7.01712 -5.04885
LeftShoulder1  0.189955 2.90615 -25.5546
LeftArm  0.854786 -19.5463 -52.7218
LeftForeArm  27.7837 -72.6023 -36.374
LeftHand  -0.0681682 3.51545 3.20198
RightShoulder  -0.533936 -5.13901 25.8653
RightArm  -19.3931 -9.54893 37.3949
RightForeArm  129.493 69.8549 148.127
RightHand  -1.39703 7.84538 -12.5504
LeftUpLeg  11.8182 6.02963 -12.0837
LeftLeg  15.0944 6.79163 0.597926
LeftFoot  -22.2788 0.996219 8.98325
LeftToes  -1.20963e-009 8.6283e-011 2.04439e-011
609
root  -0.270886 37.3854 3.85659 -150.55 -80.9929 145.697
RightUpLeg  -22.5408 -4.97496 -1.87941
RightLeg  1.77193 -1.58572 1.62786
RightFoot  -6.7456 -0.494707 11.0953
RightToes  5.82063e-011 0 -3.6325e-017
Spine  8.25752 -2.87804 -6.07887
Spine1  13.8512 -5.55471 6.74725
HEad  -20.9538 7.46323 -5.69831
LeftShoulder1  0.163787 2.98801 -25.5108
LeftArm  0.568743 -19.4752 -52.6587
LeftForeArm  27.6777 -72.4763 -36.0075
LeftHand  -0.0715652 3.34376 3.16928
RightShoulder  -0.520402 -5.09838 25.8328
RightArm  -19.2268 -9.98387 37.6889
RightForeArm  129.991 69.8758 148.158
RightHand  -1.32518 7.56026 -12.167
LeftUpLeg  13.9495 7.06988 -11.834
LeftLeg  15.9155 5.91106 0.692545
LeftFoot  -24.1936 1.0945 8.40746
LeftToes  -1.20963e-009 8.6283e-011 2.04439e-011
610
root  -1.66308 37.2089 3.83095 -152.883 -82.3775 148.449
RightUpLeg  -24.1817 -5.55931 -0.382264
RightLeg  6.95436 -1.29144 1.47855
RightFoot  -1.95098 -0.445279 5.94639
RightToes  5.82063e-011 0 -3.6325e-017
Spine  7.9245 -3.45137 -5.07347
Spine1  14.2266 -6.7044 8.24688
HEad  -20.8831 7.38663 -6.53415
LeftShoulder1  0.136864 3.07237 -25.5722
LeftArm  0.27426 -19.9421 -52.9789
LeftForeArm  26.3841 -72.1148 -35.2138
LeftHand  -0.0784342 3.43324 3.72138
RightShoulder  -0.549626 -5.18847 25.8556
RightArm  -19.2547 -10.1839 36.8565
RightForeArm  131.847 69.808 148.512
RightHand  -1.17966 7.50364 -10.9336
LeftUpLeg  15.8918 7.44685 -10.5412
LeftLeg  16.2529 4.43621 0.929293
LeftFoot  -25.0163 1.00724 7.13057
LeftToes  -1.20963e-009 8.6283e-011 2.04439e-011
